<svg xmlns="http://www.w3.org/2000/svg" xmlns:xlink="http://www.w3.org/1999/xlink" width="800" zoomAndPan="magnify" viewBox="0 0 600 225" height="300" preserveAspectRatio="xMidYMid meet" version="1.0"><defs><g/><clipPath id="f69c8015b6"><rect x="0" width="19" y="0" height="32"/></clipPath><clipPath id="92c7798eff"><rect x="0" width="12" y="0" height="32"/></clipPath><clipPath id="d2dd52ca18"><rect x="0" width="18" y="0" height="32"/></clipPath><clipPath id="6feb39161f"><rect x="0" width="17" y="0" height="32"/></clipPath><clipPath id="282c48049b"><rect x="0" width="92" y="0" height="32"/></clipPath></defs><g fill="#2563a8" fill-opacity="1"><g transform="translate(132.834515, 98.568349)"><g><path d="M 5.515625 0 L 5.515625 -56.8125 L 15.90625 -56.8125 L 42.609375 -16.796875 L 42.609375 -56.8125 L 53 -56.8125 L 53 0 L 42.609375 0 L 15.90625 -39.921875 L 15.90625 0 Z M 5.515625 0 "/></g></g></g><path stroke-linecap="butt" transform="matrix(0, -0.75, 0.75, 0, 160.248934, 162.253069)" fill="none" stroke-linejoin="miter" d="M -0.00111655 0.501421 L 56.420761 0.501421 " stroke="#000000" stroke-width="1" stroke-opacity="1" stroke-miterlimit="4"/><path stroke-linecap="round" transform="matrix(0, -0.75, 0.75, 0, 160.248934, 162.253069)" fill="none" stroke-linejoin="round" d="M 54.420761 -0.998579 L 56.420761 0.501421 L 54.420761 2.001421 " stroke="#000000" stroke-width="1" stroke-opacity="1" stroke-miterlimit="4"/><path stroke-linecap="butt" transform="matrix(0, -0.75, 0.75, 0, 231.176635, 162.253069)" fill="none" stroke-linejoin="miter" d="M -0.00111655 0.498861 L 56.420761 0.498861 " stroke="#000000" stroke-width="1" stroke-opacity="1" stroke-miterlimit="4"/><path stroke-linecap="round" transform="matrix(0, -0.75, 0.75, 0, 231.176635, 162.253069)" fill="none" stroke-linejoin="round" d="M 54.420761 -1.001139 L 56.420761 0.498861 L 54.420761 1.998862 " stroke="#000000" stroke-width="1" stroke-opacity="1" stroke-miterlimit="4"/><path stroke-linecap="butt" transform="matrix(0, -0.75, 0.75, 0, 291.604382, 162.253069)" fill="none" stroke-linejoin="miter" d="M -0.00111655 0.501449 L 56.420761 0.501449 " stroke="#000000" stroke-width="1" stroke-opacity="1" stroke-miterlimit="4"/><path stroke-linecap="round" transform="matrix(0, -0.75, 0.75, 0, 291.604382, 162.253069)" fill="none" stroke-linejoin="round" d="M 54.420761 -0.998551 L 56.420761 0.501449 L 54.420761 2.001449 " stroke="#000000" stroke-width="1" stroke-opacity="1" stroke-miterlimit="4"/><path stroke-linecap="butt" transform="matrix(0, -0.75, 0.75, 0, 358.892915, 162.253069)" fill="none" stroke-linejoin="miter" d="M -0.00111655 0.502154 L 56.420761 0.502154 " stroke="#000000" stroke-width="1" stroke-opacity="1" stroke-miterlimit="4"/><path stroke-linecap="round" transform="matrix(0, -0.75, 0.75, 0, 358.892915, 162.253069)" fill="none" stroke-linejoin="round" d="M 54.420761 -0.997846 L 56.420761 0.502154 L 54.420761 2.002154 " stroke="#000000" stroke-width="1" stroke-opacity="1" stroke-miterlimit="4"/><g transform="matrix(1, 0, 0, 1, 151, 176)"><g clip-path="url(#f69c8015b6)"><g fill="#2563a8" fill-opacity="1"><g transform="translate(1.150824, 24.544374)"><g><path d="M 8.484375 0.265625 C 6.929688 0.265625 5.601562 -0.109375 4.5 -0.859375 C 3.394531 -1.617188 2.546875 -2.703125 1.953125 -4.109375 C 1.367188 -5.515625 1.078125 -7.210938 1.078125 -9.203125 C 1.078125 -11.191406 1.367188 -12.894531 1.953125 -14.3125 C 2.546875 -15.726562 3.394531 -16.8125 4.5 -17.5625 C 5.601562 -18.320312 6.929688 -18.703125 8.484375 -18.703125 C 10.023438 -18.703125 11.347656 -18.320312 12.453125 -17.5625 C 13.566406 -16.800781 14.414062 -15.710938 15 -14.296875 C 15.582031 -12.890625 15.875 -11.191406 15.875 -9.203125 C 15.875 -7.210938 15.582031 -5.515625 15 -4.109375 C 14.414062 -2.703125 13.570312 -1.617188 12.46875 -0.859375 C 11.363281 -0.109375 10.035156 0.265625 8.484375 0.265625 Z M 8.484375 -2.859375 C 9.242188 -2.859375 9.890625 -3.109375 10.421875 -3.609375 C 10.960938 -4.109375 11.375 -4.828125 11.65625 -5.765625 C 11.9375 -6.710938 12.078125 -7.859375 12.078125 -9.203125 C 12.078125 -10.554688 11.9375 -11.707031 11.65625 -12.65625 C 11.375 -13.601562 10.960938 -14.328125 10.421875 -14.828125 C 9.890625 -15.335938 9.242188 -15.59375 8.484375 -15.59375 C 7.710938 -15.59375 7.054688 -15.335938 6.515625 -14.828125 C 5.984375 -14.328125 5.570312 -13.601562 5.28125 -12.65625 C 5 -11.707031 4.859375 -10.554688 4.859375 -9.203125 C 4.859375 -7.859375 5 -6.710938 5.28125 -5.765625 C 5.5625 -4.828125 5.972656 -4.109375 6.515625 -3.609375 C 7.054688 -3.109375 7.710938 -2.859375 8.484375 -2.859375 Z M 8.484375 -2.859375 "/></g></g></g></g></g><g transform="matrix(1, 0, 0, 1, 226, 176)"><g clip-path="url(#92c7798eff)"><g fill="#2563a8" fill-opacity="1"><g transform="translate(0.209864, 24.544374)"><g><path d="M 9.09375 -18.4375 L 9.09375 0 L 5.34375 0 L 5.34375 -15.078125 L 5.25 -15.078125 L 1 -12.140625 L 1 -15.5625 L 5.1875 -18.4375 Z M 9.09375 -18.4375 "/></g></g></g></g></g><g transform="matrix(1, 0, 0, 1, 283, 176)"><g clip-path="url(#d2dd52ca18)"><g fill="#2563a8" fill-opacity="1"><g transform="translate(1.093894, 24.544374)"><g><path d="M 1.40625 0 L 1.40625 -2.734375 L 8 -8.78125 C 8.550781 -9.320312 9.023438 -9.804688 9.421875 -10.234375 C 9.816406 -10.671875 10.117188 -11.101562 10.328125 -11.53125 C 10.546875 -11.96875 10.65625 -12.441406 10.65625 -12.953125 C 10.65625 -13.515625 10.53125 -14 10.28125 -14.40625 C 10.03125 -14.8125 9.6875 -15.125 9.25 -15.34375 C 8.820312 -15.5625 8.328125 -15.671875 7.765625 -15.671875 C 7.171875 -15.671875 6.65625 -15.546875 6.21875 -15.296875 C 5.78125 -15.054688 5.441406 -14.707031 5.203125 -14.25 C 4.960938 -13.800781 4.84375 -13.265625 4.84375 -12.640625 L 1.265625 -12.640625 C 1.265625 -13.867188 1.535156 -14.9375 2.078125 -15.84375 C 2.628906 -16.75 3.394531 -17.453125 4.375 -17.953125 C 5.351562 -18.453125 6.488281 -18.703125 7.78125 -18.703125 C 9.082031 -18.703125 10.21875 -18.46875 11.1875 -18 C 12.15625 -17.53125 12.910156 -16.878906 13.453125 -16.046875 C 14.003906 -15.222656 14.28125 -14.269531 14.28125 -13.1875 C 14.28125 -12.46875 14.140625 -11.769531 13.859375 -11.09375 C 13.578125 -10.414062 13.101562 -9.679688 12.4375 -8.890625 C 11.769531 -8.097656 10.847656 -7.164062 9.671875 -6.09375 L 6.640625 -3.203125 L 6.640625 -3.09375 L 14.484375 -3.09375 L 14.484375 0 Z M 1.40625 0 "/></g></g></g></g></g><g transform="matrix(1, 0, 0, 1, 351, 176)"><g clip-path="url(#6feb39161f)"><g fill="#2563a8" fill-opacity="1"><g transform="translate(0.165425, 24.544374)"><g><path d="M 8.109375 0.265625 C 6.722656 0.265625 5.507812 0.0195312 4.46875 -0.46875 C 3.4375 -0.957031 2.625 -1.625 2.03125 -2.46875 C 1.445312 -3.3125 1.148438 -4.28125 1.140625 -5.375 L 4.90625 -5.375 C 4.925781 -4.863281 5.070312 -4.414062 5.34375 -4.03125 C 5.625 -3.644531 6 -3.347656 6.46875 -3.140625 C 6.945312 -2.929688 7.492188 -2.828125 8.109375 -2.828125 C 8.710938 -2.828125 9.25 -2.9375 9.71875 -3.15625 C 10.195312 -3.375 10.570312 -3.675781 10.84375 -4.0625 C 11.113281 -4.445312 11.25 -4.894531 11.25 -5.40625 C 11.25 -5.914062 11.101562 -6.363281 10.8125 -6.75 C 10.53125 -7.144531 10.128906 -7.453125 9.609375 -7.671875 C 9.085938 -7.890625 8.472656 -8 7.765625 -8 L 6.078125 -8 L 6.078125 -10.796875 L 7.765625 -10.796875 C 8.378906 -10.796875 8.914062 -10.898438 9.375 -11.109375 C 9.84375 -11.316406 10.207031 -11.601562 10.46875 -11.96875 C 10.726562 -12.332031 10.859375 -12.765625 10.859375 -13.265625 C 10.859375 -13.753906 10.742188 -14.175781 10.515625 -14.53125 C 10.285156 -14.894531 9.96875 -15.179688 9.5625 -15.390625 C 9.15625 -15.597656 8.675781 -15.703125 8.125 -15.703125 C 7.5625 -15.703125 7.054688 -15.597656 6.609375 -15.390625 C 6.171875 -15.191406 5.816406 -14.910156 5.546875 -14.546875 C 5.273438 -14.179688 5.140625 -13.742188 5.140625 -13.234375 L 1.515625 -13.234375 C 1.523438 -14.304688 1.816406 -15.25 2.390625 -16.0625 C 2.960938 -16.882812 3.742188 -17.53125 4.734375 -18 C 5.734375 -18.46875 6.867188 -18.703125 8.140625 -18.703125 C 9.398438 -18.703125 10.503906 -18.472656 11.453125 -18.015625 C 12.410156 -17.554688 13.15625 -16.9375 13.6875 -16.15625 C 14.21875 -15.375 14.484375 -14.5 14.484375 -13.53125 C 14.484375 -12.5 14.160156 -11.632812 13.515625 -10.9375 C 12.878906 -10.25 12.050781 -9.800781 11.03125 -9.59375 L 11.03125 -9.484375 C 11.90625 -9.367188 12.648438 -9.113281 13.265625 -8.71875 C 13.878906 -8.320312 14.34375 -7.820312 14.65625 -7.21875 C 14.976562 -6.613281 15.140625 -5.929688 15.140625 -5.171875 C 15.140625 -4.117188 14.835938 -3.179688 14.234375 -2.359375 C 13.628906 -1.546875 12.796875 -0.90625 11.734375 -0.4375 C 10.679688 0.03125 9.472656 0.265625 8.109375 0.265625 Z M 8.109375 0.265625 "/></g></g></g></g></g><g transform="matrix(1, 0, 0, 1, 30, 176)"><g clip-path="url(#282c48049b)"><g fill="#2563a8" fill-opacity="1"><g transform="translate(0.663373, 24.544374)"><g><path d="M 5.390625 -18.4375 L 5.390625 0 L 1.59375 0 L 1.59375 -18.4375 Z M 5.390625 -18.4375 "/></g></g></g><g fill="#2563a8" fill-opacity="1"><g transform="translate(7.653899, 24.544374)"><g><path d="M 5.203125 -7.84375 L 5.203125 0 L 1.515625 0 L 1.515625 -13.65625 L 5.03125 -13.65625 L 5.09375 -10.21875 L 4.78125 -10.21875 C 5.144531 -11.375 5.703125 -12.269531 6.453125 -12.90625 C 7.203125 -13.539062 8.160156 -13.859375 9.328125 -13.859375 C 10.273438 -13.859375 11.101562 -13.648438 11.8125 -13.234375 C 12.519531 -12.828125 13.066406 -12.234375 13.453125 -11.453125 C 13.847656 -10.679688 14.046875 -9.75 14.046875 -8.65625 L 14.046875 0 L 10.359375 0 L 10.359375 -8 C 10.359375 -8.875 10.140625 -9.550781 9.703125 -10.03125 C 9.265625 -10.507812 8.65625 -10.75 7.875 -10.75 C 7.351562 -10.75 6.890625 -10.632812 6.484375 -10.40625 C 6.085938 -10.1875 5.773438 -9.859375 5.546875 -9.421875 C 5.316406 -8.992188 5.203125 -8.46875 5.203125 -7.84375 Z M 5.203125 -7.84375 "/></g></g></g><g fill="#2563a8" fill-opacity="1"><g transform="translate(23.218635, 24.544374)"><g><path d="M 6.578125 0.234375 C 5.503906 0.234375 4.539062 -0.0390625 3.6875 -0.59375 C 2.832031 -1.144531 2.160156 -1.941406 1.671875 -2.984375 C 1.179688 -4.035156 0.9375 -5.3125 0.9375 -6.8125 C 0.9375 -8.34375 1.1875 -9.628906 1.6875 -10.671875 C 2.195312 -11.710938 2.875 -12.503906 3.71875 -13.046875 C 4.570312 -13.585938 5.519531 -13.859375 6.5625 -13.859375 C 7.289062 -13.859375 7.910156 -13.738281 8.421875 -13.5 C 8.929688 -13.257812 9.351562 -12.957031 9.6875 -12.59375 C 10.03125 -12.226562 10.296875 -11.847656 10.484375 -11.453125 L 10.578125 -11.453125 L 10.578125 -18.4375 L 14.265625 -18.4375 L 14.265625 0 L 10.625 0 L 10.625 -2.171875 L 10.5 -2.171875 C 10.300781 -1.773438 10.03125 -1.390625 9.6875 -1.015625 C 9.351562 -0.648438 8.929688 -0.347656 8.421875 -0.109375 C 7.910156 0.117188 7.296875 0.234375 6.578125 0.234375 Z M 7.671875 -2.734375 C 8.304688 -2.734375 8.847656 -2.90625 9.296875 -3.25 C 9.742188 -3.59375 10.082031 -4.066406 10.3125 -4.671875 C 10.550781 -5.285156 10.671875 -6.003906 10.671875 -6.828125 C 10.671875 -7.648438 10.550781 -8.363281 10.3125 -8.96875 C 10.082031 -9.582031 9.742188 -10.054688 9.296875 -10.390625 C 8.847656 -10.722656 8.304688 -10.890625 7.671875 -10.890625 C 7.046875 -10.890625 6.507812 -10.71875 6.0625 -10.375 C 5.625 -10.039062 5.289062 -9.566406 5.0625 -8.953125 C 4.84375 -8.347656 4.734375 -7.640625 4.734375 -6.828125 C 4.734375 -6.015625 4.84375 -5.300781 5.0625 -4.6875 C 5.289062 -4.070312 5.625 -3.59375 6.0625 -3.25 C 6.507812 -2.90625 7.046875 -2.734375 7.671875 -2.734375 Z M 7.671875 -2.734375 "/></g></g></g><g fill="#2563a8" fill-opacity="1"><g transform="translate(39.006078, 24.544374)"><g><path d="M 7.703125 0.265625 C 6.316406 0.265625 5.117188 -0.0195312 4.109375 -0.59375 C 3.097656 -1.164062 2.316406 -1.976562 1.765625 -3.03125 C 1.210938 -4.09375 0.9375 -5.335938 0.9375 -6.765625 C 0.9375 -8.179688 1.207031 -9.414062 1.75 -10.46875 C 2.300781 -11.53125 3.070312 -12.359375 4.0625 -12.953125 C 5.050781 -13.554688 6.207031 -13.859375 7.53125 -13.859375 C 8.445312 -13.859375 9.296875 -13.707031 10.078125 -13.40625 C 10.867188 -13.113281 11.554688 -12.675781 12.140625 -12.09375 C 12.734375 -11.507812 13.191406 -10.78125 13.515625 -9.90625 C 13.847656 -9.039062 14.015625 -8.039062 14.015625 -6.90625 L 14.015625 -5.875 L 2.40625 -5.875 L 2.40625 -8.203125 L 12.21875 -8.203125 L 10.5 -7.59375 C 10.5 -8.300781 10.382812 -8.914062 10.15625 -9.4375 C 9.9375 -9.957031 9.609375 -10.359375 9.171875 -10.640625 C 8.742188 -10.929688 8.210938 -11.078125 7.578125 -11.078125 C 6.941406 -11.078125 6.398438 -10.929688 5.953125 -10.640625 C 5.503906 -10.347656 5.160156 -9.953125 4.921875 -9.453125 C 4.691406 -8.953125 4.578125 -8.375 4.578125 -7.71875 L 4.578125 -6.09375 C 4.578125 -5.320312 4.707031 -4.664062 4.96875 -4.125 C 5.238281 -3.59375 5.613281 -3.1875 6.09375 -2.90625 C 6.570312 -2.632812 7.132812 -2.5 7.78125 -2.5 C 8.21875 -2.5 8.613281 -2.5625 8.96875 -2.6875 C 9.332031 -2.820312 9.640625 -3.007812 9.890625 -3.25 C 10.140625 -3.488281 10.332031 -3.785156 10.46875 -4.140625 L 13.828125 -3.65625 C 13.609375 -2.863281 13.21875 -2.171875 12.65625 -1.578125 C 12.101562 -0.992188 11.40625 -0.539062 10.5625 -0.21875 C 9.726562 0.101562 8.773438 0.265625 7.703125 0.265625 Z M 7.703125 0.265625 "/></g></g></g><g fill="#2563a8" fill-opacity="1"><g transform="translate(53.358183, 24.544374)"><g><path d="M 0.453125 0 L 5.78125 -8.3125 L 5.75 -5.71875 L 0.71875 -13.65625 L 4.71875 -13.65625 L 5.953125 -11.5625 C 6.328125 -10.882812 6.671875 -10.210938 6.984375 -9.546875 C 7.304688 -8.890625 7.625 -8.25 7.9375 -7.625 L 6.578125 -7.625 C 6.921875 -8.25 7.242188 -8.890625 7.546875 -9.546875 C 7.859375 -10.210938 8.210938 -10.882812 8.609375 -11.5625 L 9.890625 -13.65625 L 13.828125 -13.65625 L 8.6875 -5.6875 L 8.703125 -8.25 L 14.015625 0 L 10.03125 0 L 8.546875 -2.46875 C 8.160156 -3.144531 7.804688 -3.804688 7.484375 -4.453125 C 7.160156 -5.109375 6.835938 -5.742188 6.515625 -6.359375 L 7.84375 -6.359375 C 7.519531 -5.742188 7.207031 -5.109375 6.90625 -4.453125 C 6.601562 -3.804688 6.253906 -3.144531 5.859375 -2.46875 L 4.390625 0 Z M 0.453125 0 "/></g></g></g><g fill="#2563a8" fill-opacity="1"><g transform="translate(67.821761, 24.544374)"><g/></g></g><g fill="#2563a8" fill-opacity="1"><g transform="translate(73.698752, 24.544374)"><g><path d="M 2.375 -8.78125 L 2.375 -11.875 L 14.703125 -11.875 L 14.703125 -8.78125 Z M 2.375 -2.84375 L 2.375 -5.96875 L 14.703125 -5.96875 L 14.703125 -2.84375 Z M 2.375 -2.84375 "/></g></g></g></g></g><g fill="#2563a8" fill-opacity="1"><g transform="translate(220.719278, 98.568349)"><g><path d="M 10.875 -46.5 C 8.976562 -46.5 7.421875 -47.066406 6.203125 -48.203125 C 4.984375 -49.335938 4.375 -50.773438 4.375 -52.515625 C 4.375 -54.242188 4.984375 -55.660156 6.203125 -56.765625 C 7.421875 -57.878906 8.976562 -58.4375 10.875 -58.4375 C 12.769531 -58.4375 14.328125 -57.878906 15.546875 -56.765625 C 16.765625 -55.660156 17.375 -54.242188 17.375 -52.515625 C 17.375 -50.773438 16.765625 -49.335938 15.546875 -48.203125 C 14.328125 -47.066406 12.769531 -46.5 10.875 -46.5 Z M 5.6875 0 L 5.6875 -40.25 L 16.0625 -40.25 L 16.0625 0 Z M 5.6875 0 "/></g></g></g><g fill="#2563a8" fill-opacity="1"><g transform="translate(281.475105, 98.568349)"><g><path d="M 5.28125 0 L 5.28125 -58.4375 L 15.65625 -58.4375 L 15.65625 0 Z M 5.28125 0 "/></g></g></g><g fill="#2563a8" fill-opacity="1"><g transform="translate(333.395025, 98.568349)"><g><path d="M 24.828125 0.96875 C 20.773438 0.96875 17.175781 0.101562 14.03125 -1.625 C 10.894531 -3.351562 8.4375 -5.785156 6.65625 -8.921875 C 4.875 -12.066406 3.984375 -15.691406 3.984375 -19.796875 C 3.984375 -23.960938 4.859375 -27.671875 6.609375 -30.921875 C 8.367188 -34.171875 10.800781 -36.703125 13.90625 -38.515625 C 17.019531 -40.328125 20.691406 -41.234375 24.921875 -41.234375 C 28.867188 -41.234375 32.351562 -40.363281 35.375 -38.625 C 38.40625 -36.894531 40.773438 -34.53125 42.484375 -31.53125 C 44.191406 -28.53125 45.046875 -25.1875 45.046875 -21.5 C 45.046875 -20.90625 45.03125 -20.285156 45 -19.640625 C 44.96875 -18.992188 44.925781 -18.316406 44.875 -17.609375 L 14.28125 -17.609375 C 14.5 -14.472656 15.59375 -12.007812 17.5625 -10.21875 C 19.539062 -8.4375 21.9375 -7.546875 24.75 -7.546875 C 26.863281 -7.546875 28.632812 -8.019531 30.0625 -8.96875 C 31.5 -9.914062 32.570312 -11.144531 33.28125 -12.65625 L 43.828125 -12.65625 C 43.066406 -10.113281 41.804688 -7.800781 40.046875 -5.71875 C 38.285156 -3.632812 36.117188 -2 33.546875 -0.8125 C 30.984375 0.375 28.078125 0.96875 24.828125 0.96875 Z M 24.921875 -32.78125 C 22.367188 -32.78125 20.117188 -32.0625 18.171875 -30.625 C 16.222656 -29.195312 14.984375 -27.023438 14.453125 -24.109375 L 34.484375 -24.109375 C 34.328125 -26.753906 33.351562 -28.859375 31.5625 -30.421875 C 29.78125 -31.992188 27.566406 -32.78125 24.921875 -32.78125 Z M 24.921875 -32.78125 "/></g></g></g></svg>